<svg xmlns="http://www.w3.org/2000/svg" width="140" height="140" viewBox="0 0 140 140">
	<g transform="translate(0.000000,96.000000) scale(0.100000,-0.100000)" fill="#000000" stroke="none">
		<path d="M93 950 c-12 -5 -30 -21 -40 -37 -17 -25 -18 -59 -18 -441 l0 -414
28 -24 c34 -29 56 -30 90 -4 l26 21 3 365 c3 349 4 366 22 380 16 11 79 14
336 14 294 0 318 -1 333 -18 15 -16 17 -51 17 -284 0 -257 1 -266 20 -271 20
-5 20 0 20 278 l0 282 -26 27 -27 26 -338 0 -338 0 -28 -24 -28 -24 -5 -369
-5 -368 -25 0 -25 0 -3 403 c-1 266 1 410 8 422 10 19 23 20 288 20 152 0 283
4 291 9 8 5 11 16 8 25 -6 14 -38 16 -284 15 -153 0 -288 -4 -300 -9z" />
		<path d="M754 945 c-8 -20 4 -35 29 -35 31 0 51 15 44 34 -8 20 -65 22 -73 1z" />
		<path d="M374 495 c-12 -31 7 -35 159 -35 156 0 185 6 174 34 -6 14 -29 16
-167 16 -131 0 -162 -3 -166 -15z" />
		<path d="M374 385 c-12 -31 7 -35 167 -35 137 0 160 2 166 16 11 28 -18 34
-175 34 -124 0 -154 -3 -158 -15z" />
		<path d="M370 260 c0 -18 7 -20 60 -20 42 0 69 6 92 20 l33 20 -92 0 c-86 0
-93 -1 -93 -20z" />
		<path d="M585 239 c-73 -21 -165 -138 -165 -211 0 -25 3 -28 35 -28 31 0 35 3
35 25 0 35 34 99 66 124 57 45 139 49 203 10 40 -24 48 -45 27 -68 -30 -33
-20 -41 53 -41 77 0 81 3 81 73 0 60 -12 75 -44 57 -24 -12 -28 -11 -54 13
-54 52 -153 71 -237 46z" />
	</g>
</svg>
